<svg xmlns="http://www.w3.org/2000/svg" width="316" height="143" viewBox="0 0 316 143" version="1.1">
	<path d="M 135.529 24 C 135.304 24.402, 131.802 36.449, 129.352 45.250 C 128.895 46.893, 131.064 47, 164.933 47 C 184.770 47, 201 46.887, 201 46.748 C 201 46.609, 202.350 41.773, 204 36 C 205.650 30.227, 207 25.053, 207 24.502 C 206.999 23.484, 136.096 22.986, 135.529 24 M 224.990 26.250 C 223.172 27.488, 220.874 29.625, 219.884 31 C 217.807 33.886, 199 104.385, 199 109.287 C 199 113.238, 201.124 116.496, 205.011 118.506 C 207.373 119.727, 213.024 120, 235.982 120 C 266.521 120, 268.187 119.748, 273.156 114.373 C 275.174 112.190, 280 100.218, 280 97.395 C 280 97.178, 270.122 97, 258.050 97 C 239.124 97, 235.978 96.783, 235.219 95.427 C 233.837 92.957, 247.447 45.011, 250.181 42.715 C 252.083 41.119, 254.507 40.942, 273.128 41.040 C 284.579 41.101, 294.410 40.865, 294.974 40.516 C 295.538 40.167, 296 38.087, 296 35.893 C 296 32.830, 295.364 31.315, 293.260 29.366 C 287.768 24.275, 285.859 24, 256.026 24 C 228.915 24, 228.222 24.050, 224.990 26.250 M 33.096 28.750 C 32.557 30.813, 27.552 49.550, 21.975 70.388 C 12.397 106.174, 11.908 108.471, 13.168 111.781 C 13.901 113.708, 15.772 116.234, 17.324 117.393 C 20.058 119.434, 21.160 119.500, 52.323 119.500 L 84.500 119.500 89.081 116.807 C 92.160 114.997, 94.374 112.703, 95.836 109.807 C 97.480 106.552, 113.318 49.333, 118.550 27.750 L 119.217 25 103.300 25 L 87.384 25 77.713 57.750 C 68.620 88.542, 67.832 90.694, 64.536 93.750 C 62.192 95.923, 60.030 97, 58.015 97 C 54.746 97, 51 93.998, 51 91.378 C 51 90.486, 55.275 75.419, 60.500 57.896 C 65.725 40.373, 70 25.803, 70 25.518 C 70 25.233, 61.917 25, 52.039 25 L 34.077 25 33.096 28.750 M 123.108 66.750 C 117.646 85.405, 108 119.097, 108 119.519 C 108 119.784, 115.803 120, 125.340 120 L 142.681 120 146.413 106.250 C 148.466 98.688, 150.817 90.147, 151.637 87.272 L 153.129 82.044 171.778 81.772 L 190.428 81.500 193.066 73 C 194.516 68.325, 196.026 63.488, 196.419 62.250 L 197.135 60 161.110 60 L 125.085 60 123.108 66.750" stroke="none" fill="#c81e1e" fill-rule="evenodd"/>
</svg>